<?xml version="1.0" standalone="no"?>
<!DOCTYPE svg PUBLIC "-//W3C//DTD SVG 20010904//EN"
 "http://www.w3.org/TR/2001/REC-SVG-20010904/DTD/svg10.dtd">
<svg version="1.0" xmlns="http://www.w3.org/2000/svg"
 width="500.000000pt" height="500.000000pt" viewBox="0 0 500.000000 500.000000"
 preserveAspectRatio="xMidYMid meet">

<g transform="translate(0.000000,500.000000) scale(0.100000,-0.100000)"
fill="#000000" stroke="none">
<path d="M2615 3931 c-16 -4 -40 -13 -52 -20 -25 -13 -41 -57 -27 -71 5 -5 43
-14 84 -20 211 -30 272 -45 416 -105 122 -50 208 -103 324 -196 251 -202 405
-465 456 -778 25 -155 20 -141 54 -129 17 5 35 18 40 28 6 11 10 148 10 335 0
352 -4 383 -65 510 -49 100 -120 189 -211 262 -140 113 -272 162 -485 182
-126 12 -497 13 -544 2z"/>
<path d="M1052 2470 c-12 -5 -27 -21 -32 -35 -5 -14 -10 -159 -11 -323 -2
-323 3 -367 57 -494 101 -240 341 -420 610 -458 42 -5 204 -10 360 -10 314 0
347 5 360 55 4 15 3 30 -2 35 -5 5 -71 18 -148 29 -315 47 -603 191 -795 397
-94 100 -161 195 -217 307 -74 146 -97 220 -123 391 -9 60 -21 111 -26 112 -6
2 -20 -1 -33 -6z"/>
</g>
</svg>
